<?xml version="1.0" encoding="UTF-8"?>
<svg version="1.1" xmlns="http://www.w3.org/2000/svg" width="595" height="419">
<path d="M0 0 C0.99 0.495 0.99 0.495 2 1 C2 1.66 2 2.32 2 3 C2.99 3.33 3.98 3.66 5 4 C9.66454964 9.83068705 12.41488916 16.38651733 12 23.9375 C11.22072841 29.40952799 9.21544328 34.49317923 6 39 C3.83203125 40.28125 3.83203125 40.28125 2 41 C2 41.66 2 42.32 2 43 C1.34 43 0.68 43 0 43 C-0.25652344 43.72960937 -0.51304687 44.45921875 -0.77734375 45.2109375 C-2.05425605 48.12376621 -3.54725787 50.17641771 -5.5625 52.625 C-7.67486686 55.19848644 -8.93885026 56.81655079 -10 60 C-10.66 60 -11.32 60 -12 60 C-12.0825 60.66 -12.165 61.32 -12.25 62 C-13 65 -13 65 -14.8125 68.3125 C-24.83163664 87.91197897 -23.9406096 113.65333793 -17.390625 134.0390625 C-15.71934101 138.95747902 -13.62166978 143.51513094 -11 148 C-10.61070312 148.680625 -10.22140625 149.36125 -9.8203125 150.0625 C-5.45554586 157.36563896 -0.23964431 164.20604457 6 170 C6.63421875 170.60457031 7.2684375 171.20914063 7.921875 171.83203125 C24.91804253 187.59266177 47.07173241 195.41547847 70.16015625 195.16015625 C89.79185827 194.05300387 107.18771637 188.80476271 123 177 C123.93585938 176.32195312 124.87171875 175.64390625 125.8359375 174.9453125 C139.79768908 164.26867894 149.76561579 148.67699155 155 132 C155.28746094 131.20980469 155.57492187 130.41960937 155.87109375 129.60546875 C162.53360955 109.36289684 159.36253777 84.93562758 150.55078125 65.86328125 C149.1219472 63.17437307 147.61434062 60.58130606 146 58 C145.49210938 57.18789062 144.98421875 56.37578125 144.4609375 55.5390625 C142.19354961 52.03914581 139.84012063 48.72886603 137.125 45.5625 C135 43 135 43 135 41 C134.39542969 40.7628125 133.79085937 40.525625 133.16796875 40.28125 C128.49536517 37.51978338 126.75951439 31.5773685 125.28515625 26.57421875 C123.92660936 18.66876969 126.74562528 10.68190719 131.2734375 4.16796875 C135.76892871 -0.57090893 140.83734234 -2.83615147 147.2421875 -3.16796875 C149.04042969 -3.17763672 149.04042969 -3.17763672 150.875 -3.1875 C152.66550781 -3.20876953 152.66550781 -3.20876953 154.4921875 -3.23046875 C160.91613154 -2.80840561 164.61330811 -0.9051523 169.3125 3.4375 C170.17488281 4.21996094 171.03726563 5.00242187 171.92578125 5.80859375 C174 8 174 8 175 11 C175.66 11 176.32 11 177 11 C178.7667722 13.10724393 180.39360476 15.21151884 182 17.4375 C182.48549316 18.10765137 182.97098633 18.77780273 183.47119141 19.46826172 C191.65582928 30.96073572 198.41602979 42.63008688 203 56 C203.51240234 57.25876953 203.51240234 57.25876953 204.03515625 58.54296875 C215.3405588 87.33284001 214.17579864 124.90719338 202.99609375 153.57421875 C202.34828738 155.02987777 201.67870204 156.47610387 200.984375 157.91015625 C199.92890339 160.15093924 199.09868012 162.42357423 198.25 164.75 C191.94550875 180.59708694 180.14461255 195.15159751 168 207 C167.43023437 207.59167969 166.86046875 208.18335938 166.2734375 208.79296875 C165.66757812 209.41816406 165.06171875 210.04335938 164.4375 210.6875 C163.87933594 211.26886719 163.32117188 211.85023438 162.74609375 212.44921875 C160.92625214 214.06549866 159.17663825 214.94049584 157 216 C156.29875 216.7425 155.5975 217.485 154.875 218.25 C150.98117576 221.97452754 146.69104573 224.38641738 142 227 C141.41831055 227.32436035 140.83662109 227.6487207 140.23730469 227.98291016 C118.54399346 240.00768815 97.3573227 246.2100394 72.5859375 246.35009766 C70.47026453 246.3665057 68.35464337 246.39358949 66.23925781 246.43212891 C51.98866771 246.68972367 39.55627227 245.44811027 26 241 C24.44089383 240.50729224 22.88164913 240.01502265 21.32226562 239.52319336 C11.77281167 236.49700979 3.4873171 232.30969838 -5 227 C-6.04671875 226.35289062 -7.0934375 225.70578125 -8.171875 225.0390625 C-17.08911483 219.44809467 -17.08911483 219.44809467 -20 217 C-20 216.34 -20 215.68 -20 215 C-20.74121094 214.74992188 -21.48242188 214.49984375 -22.24609375 214.2421875 C-25.22488811 212.89856111 -26.82532327 211.48226375 -29.0625 209.125 C-30.03896484 208.10792969 -30.03896484 208.10792969 -31.03515625 207.0703125 C-32.00775391 206.04550781 -32.00775391 206.04550781 -33 205 C-33.97839844 204.0409375 -33.97839844 204.0409375 -34.9765625 203.0625 C-48.77326158 188.99945538 -59.69019428 171.63931115 -66 153 C-66.42732422 151.74123047 -66.42732422 151.74123047 -66.86328125 150.45703125 C-69.09790637 143.43228663 -70.57568733 136.22596321 -72 129 C-72.17208984 128.19530273 -72.34417969 127.39060547 -72.52148438 126.56152344 C-73.97106542 119.38375921 -74.38505815 112.4393937 -74.375 105.125 C-74.37411377 103.95187256 -74.37322754 102.77874512 -74.37231445 101.57006836 C-74.22701064 90.70178552 -72.52857922 80.53694061 -70 70 C-69.60748047 68.19595703 -69.60748047 68.19595703 -69.20703125 66.35546875 C-67.99979428 61.05296382 -66.44374666 56.17954984 -64.08203125 51.27734375 C-63.06171077 49.12988223 -62.11870983 46.96293765 -61.18359375 44.77734375 C-59.09744446 40.06960181 -56.63646231 35.6680717 -54 31.25 C-53.57460937 30.52167969 -53.14921875 29.79335937 -52.7109375 29.04296875 C-50.37987788 25.10304897 -47.87664133 21.57011736 -45 18 C-44.67 17.01 -44.34 16.02 -44 15 C-42.0625 12.8125 -42.0625 12.8125 -40 11 C-39.34 11 -38.68 11 -38 11 C-37.75765625 10.42507812 -37.5153125 9.85015625 -37.265625 9.2578125 C-35.76384376 6.57870892 -34.03684616 4.92071612 -31.75 2.875 C-31.00234375 2.19179687 -30.2546875 1.50859375 -29.484375 0.8046875 C-21.2816861 -5.15386953 -8.64394012 -4.91132961 0 0 Z " fill="#090909" transform="translate(229,112)"/>
<path d="M0 0 C0.83402344 -0.00128906 1.66804688 -0.00257812 2.52734375 -0.00390625 C3.39488281 -0.00003906 4.26242187 0.00382812 5.15625 0.0078125 C6.45755859 0.00201172 6.45755859 0.00201172 7.78515625 -0.00390625 C8.61917969 -0.00261719 9.45320313 -0.00132813 10.3125 0 C11.07369141 0.00112793 11.83488281 0.00225586 12.61914062 0.00341797 C17.48729648 0.31263688 19.42571269 2.74844008 22.65625 6.1328125 C23.5225 6.9165625 24.38875 7.7003125 25.28125 8.5078125 C31.71111429 15.61450461 31.10333616 23.29020438 31.09204102 32.41479492 C31.10102751 33.86432672 31.1112378 35.31385137 31.12257385 36.7633667 C31.14899286 40.68722519 31.15610401 44.6108872 31.15802121 48.53482604 C31.16015906 50.9915079 31.16657407 53.4481404 31.17451286 55.90480995 C31.20224329 64.49036432 31.21452175 73.07577929 31.2121582 81.66137695 C31.21035821 89.63962194 31.24197398 97.61725685 31.28938919 105.59534758 C31.32874513 112.4644381 31.34470443 119.33333033 31.34279197 126.20253259 C31.34203056 130.29651223 31.35038456 134.38994972 31.38232613 138.48381615 C31.41158907 142.33946799 31.41146097 146.19406776 31.38977623 150.04975891 C31.38666518 151.45572783 31.3935686 152.86176478 31.4118576 154.26761818 C31.52609523 163.66627018 30.28852833 171.37287485 24.65625 179.1328125 C18.65440151 183.9293324 11.23515381 187.8343815 3.39453125 187.63671875 C-3.24707919 186.41451084 -10.63459908 183.02767134 -15.28125 178.0625 C-16.52890419 176.10932708 -17.4840687 174.28201574 -18.34375 172.1328125 C-18.6846699 171.39376049 -19.02558979 170.65470848 -19.37684059 169.89326096 C-20.47614933 166.75482309 -20.60081817 164.29573121 -20.61117554 160.97344971 C-20.61970551 159.73428802 -20.62823547 158.49512634 -20.63702393 157.21841431 C-20.63632496 155.85296618 -20.63540193 154.48751815 -20.63427734 153.12207031 C-20.64026464 151.6778224 -20.64707065 150.23357768 -20.65463257 148.78933716 C-20.67228197 144.87178135 -20.67698757 140.95431295 -20.67826414 137.03672123 C-20.6796872 134.58645027 -20.6839598 132.13620143 -20.68925858 129.68593597 C-20.70775721 121.12980238 -20.71592963 112.57373105 -20.71435547 104.01757812 C-20.71315497 96.05536162 -20.73423971 88.09341658 -20.7658428 80.13126874 C-20.79204273 73.28521113 -20.80272117 66.43924197 -20.80144465 59.59313464 C-20.80093599 55.50884375 -20.80656527 51.42479403 -20.82780075 47.34055328 C-20.84724537 43.49579414 -20.8472656 39.65150462 -20.83276749 35.80672836 C-20.83068577 34.40112238 -20.83534211 32.99548653 -20.8474884 31.58993149 C-20.92417764 22.09525725 -20.3199572 14.6060456 -13.84375 7.3203125 C-12.60625 6.2375 -12.60625 6.2375 -11.34375 5.1328125 C-10.6425 4.3903125 -9.94125 3.6478125 -9.21875 2.8828125 C-6.33890713 0.19495916 -3.77316188 0.00559105 0 0 Z " fill="#080808" transform="translate(292.34375,60.8671875)"/>
<path d="M0 0 C0.66 0.99 1.32 1.98 2 3 C1.0479279 4.00596297 0.08812654 5.00461563 -0.875 6 C-1.40867187 6.556875 -1.94234375 7.11375 -2.4921875 7.6875 C-4 9 -4 9 -6 9 C-4.47291037 5.56404834 -2.40072955 2.88087546 0 0 Z " fill="#6B6B6B" transform="translate(370,271)"/>
</svg>
