<svg width="820" height="329" viewBox="0 0 820 329" fill="none" xmlns="http://www.w3.org/2000/svg">
<g filter="url(#filter0_d_417_54)">
<g clip-path="url(#clip0_417_54)">
<rect x="45" y="41" width="730" height="239" rx="16" fill="white"/>
<path d="M313.453 165.732C196.551 208.695 94.4381 72.0591 -3.44974 115.726C-61.9007 129.812 -179.93 159.534 -184.437 165.732C-188.944 171.93 -193.357 309.177 -195 377.025L673.314 520C732.469 446.987 834.019 280.112 766.977 196.722C683.173 92.4841 430.355 122.769 313.453 165.732Z" fill="#5DCCFC" fill-opacity="0.41"/>
<path d="M470.689 160.863C369.374 189.461 223.5 104.599 140.776 141.594C91.3794 153.528 53.7359 155.612 49.9271 160.863C46.1182 166.114 42.3887 282.39 41 339.871L774.805 461C824.796 399.143 910.615 257.766 853.958 187.118C783.136 98.8073 573.066 131.966 470.689 160.863Z" fill="#5DCCFC" fill-opacity="0.41"/>
<path d="M740.092 103.382C740.092 116.497 729.461 127.129 716.346 127.129C703.231 127.129 692.599 116.497 692.599 103.382C692.599 91.1966 701.21 83.3073 713.478 70.9166C715.056 69.3229 717.641 69.3174 719.224 70.9058C731.395 83.1167 740.092 91.2075 740.092 103.382Z" fill="url(#paint0_radial_417_54)"/>
<g opacity="0.8" filter="url(#filter1_f_417_54)">
<path d="M737.006 111.326C737.006 122.808 727.703 132.116 716.228 132.116C704.752 132.116 695.45 122.808 695.45 111.326C695.45 100.777 702.815 93.9056 713.358 83.2661C714.937 81.6725 717.524 81.6666 719.108 83.2553C729.568 93.7444 737.006 100.788 737.006 111.326Z" fill="url(#paint1_radial_417_54)"/>
</g>
<g style="mix-blend-mode:color-burn" filter="url(#filter2_f_417_54)">
<path d="M697.692 88.1887C696.697 90.83 696.161 93.6025 696.161 96.6418C696.162 109.757 706.794 120.388 719.908 120.388C727.617 120.388 734.465 116.714 738.803 111.023C735.595 120.341 726.753 127.037 716.346 127.037C703.231 127.037 692.6 116.405 692.6 103.29C692.6 97.6218 694.464 92.8834 697.692 88.1887Z" fill="url(#paint2_radial_417_54)"/>
</g>
<g style="mix-blend-mode:screen" opacity="0.3">
<circle cx="724.181" cy="90.5593" r="22.5593" fill="url(#paint3_radial_417_54)"/>
</g>
<g style="mix-blend-mode:screen" opacity="0.7" filter="url(#filter3_f_417_54)">
<circle cx="706.372" cy="113.118" r="22.5593" fill="url(#paint4_radial_417_54)"/>
</g>
<path d="M711.858 193.948C711.858 227.006 685.06 253.805 652.002 253.805C618.943 253.805 592.145 227.006 592.145 193.948C592.145 161.805 615.912 141.522 649.14 107.686C650.711 106.085 653.297 106.079 654.874 107.674C687.825 140.97 711.858 161.816 711.858 193.948Z" fill="url(#paint5_radial_417_54)"/>
<g opacity="0.8" filter="url(#filter4_f_417_54)">
<path d="M704.08 213.97C704.08 242.912 680.631 266.375 651.705 266.375C622.779 266.375 599.33 242.912 599.33 213.97C599.33 185.944 619.957 168.216 648.845 138.81C650.417 137.209 652.999 137.204 654.577 138.799C683.225 167.74 704.08 185.955 704.08 213.97Z" fill="url(#paint6_radial_417_54)"/>
</g>
<g style="mix-blend-mode:color-burn" filter="url(#filter5_f_417_54)">
<path d="M604.983 155.646C602.476 162.305 601.125 169.293 601.125 176.956C601.125 210.014 627.923 236.813 660.981 236.813C680.41 236.813 697.676 227.555 708.611 213.21C700.524 236.697 678.235 253.572 652.003 253.572C618.945 253.572 592.146 226.773 592.146 193.715C592.146 179.426 596.845 167.481 604.983 155.646Z" fill="url(#paint7_radial_417_54)"/>
</g>
<g style="mix-blend-mode:screen" opacity="0.3">
<circle cx="671.757" cy="161.625" r="56.8641" fill="url(#paint8_radial_417_54)"/>
</g>
<g style="mix-blend-mode:screen" opacity="0.7" filter="url(#filter6_f_417_54)">
<circle cx="626.864" cy="218.489" r="56.8641" fill="url(#paint9_radial_417_54)"/>
</g>
<path d="M108.572 200.091H112.441L117.067 208.456H117.251L121.877 200.091H125.746L118.867 211.946V219H115.451V211.946L108.572 200.091ZM132.349 219.277C130.964 219.277 129.764 218.972 128.749 218.363C127.733 217.754 126.945 216.901 126.385 215.805C125.831 214.71 125.554 213.429 125.554 211.964C125.554 210.5 125.831 209.216 126.385 208.114C126.945 207.013 127.733 206.157 128.749 205.548C129.764 204.938 130.964 204.634 132.349 204.634C133.734 204.634 134.935 204.938 135.95 205.548C136.966 206.157 137.751 207.013 138.305 208.114C138.865 209.216 139.145 210.5 139.145 211.964C139.145 213.429 138.865 214.71 138.305 215.805C137.751 216.901 136.966 217.754 135.95 218.363C134.935 218.972 133.734 219.277 132.349 219.277ZM132.368 216.599C133.119 216.599 133.747 216.393 134.251 215.981C134.756 215.562 135.132 215.002 135.378 214.3C135.63 213.599 135.756 212.817 135.756 211.955C135.756 211.087 135.63 210.303 135.378 209.601C135.132 208.893 134.756 208.33 134.251 207.911C133.747 207.493 133.119 207.283 132.368 207.283C131.598 207.283 130.958 207.493 130.447 207.911C129.943 208.33 129.564 208.893 129.312 209.601C129.066 210.303 128.942 211.087 128.942 211.955C128.942 212.817 129.066 213.599 129.312 214.3C129.564 215.002 129.943 215.562 130.447 215.981C130.958 216.393 131.598 216.599 132.368 216.599ZM151.801 213.036V204.818H155.143V219H151.902V216.479H151.755C151.435 217.273 150.908 217.923 150.176 218.428C149.449 218.932 148.554 219.185 147.489 219.185C146.56 219.185 145.738 218.978 145.024 218.566C144.316 218.147 143.762 217.541 143.362 216.747C142.962 215.947 142.762 214.981 142.762 213.848V204.818H146.104V213.331C146.104 214.23 146.35 214.944 146.843 215.473C147.335 216.002 147.981 216.267 148.782 216.267C149.274 216.267 149.751 216.147 150.213 215.907C150.674 215.667 151.053 215.31 151.348 214.836C151.65 214.356 151.801 213.756 151.801 213.036ZM159.36 219V204.818H162.601V207.182H162.749C163.007 206.363 163.45 205.732 164.078 205.289C164.712 204.84 165.435 204.615 166.248 204.615C166.433 204.615 166.639 204.624 166.866 204.643C167.1 204.655 167.294 204.677 167.448 204.707V207.782C167.307 207.733 167.082 207.69 166.774 207.653C166.473 207.61 166.18 207.588 165.897 207.588C165.288 207.588 164.74 207.72 164.254 207.985C163.773 208.244 163.395 208.604 163.118 209.065C162.841 209.527 162.702 210.059 162.702 210.663V219H159.36ZM180.355 200.091L185.277 214.974H185.47L190.382 200.091H194.149L187.483 219H183.255L176.598 200.091H180.355ZM202.027 219.277C200.605 219.277 199.377 218.982 198.343 218.391C197.315 217.794 196.524 216.95 195.97 215.861C195.417 214.765 195.14 213.476 195.14 211.992C195.14 210.533 195.417 209.253 195.97 208.151C196.531 207.043 197.312 206.182 198.316 205.566C199.319 204.944 200.498 204.634 201.852 204.634C202.726 204.634 203.551 204.775 204.326 205.058C205.108 205.335 205.797 205.766 206.394 206.351C206.998 206.936 207.472 207.68 207.816 208.585C208.161 209.484 208.333 210.555 208.333 211.798V212.823H196.709V210.57H205.13C205.123 209.93 204.985 209.361 204.714 208.862C204.443 208.357 204.065 207.96 203.578 207.671C203.098 207.382 202.538 207.237 201.898 207.237C201.215 207.237 200.615 207.403 200.098 207.736C199.581 208.062 199.177 208.493 198.888 209.028C198.605 209.558 198.46 210.139 198.454 210.773V212.74C198.454 213.565 198.605 214.273 198.907 214.864C199.208 215.448 199.63 215.898 200.171 216.212C200.713 216.519 201.347 216.673 202.073 216.673C202.56 216.673 203 216.606 203.394 216.47C203.788 216.329 204.129 216.122 204.419 215.852C204.708 215.581 204.926 215.245 205.074 214.845L208.195 215.196C207.998 216.021 207.622 216.741 207.068 217.357C206.521 217.966 205.819 218.44 204.963 218.778C204.108 219.111 203.129 219.277 202.027 219.277ZM215.283 210.69V219H211.941V204.818H215.136V207.228H215.302C215.628 206.434 216.148 205.803 216.862 205.335C217.582 204.867 218.472 204.634 219.53 204.634C220.509 204.634 221.362 204.843 222.088 205.261C222.82 205.68 223.387 206.286 223.787 207.08C224.193 207.874 224.393 208.838 224.387 209.97V219H221.045V210.487C221.045 209.539 220.798 208.798 220.306 208.262C219.82 207.727 219.146 207.459 218.284 207.459C217.699 207.459 217.179 207.588 216.724 207.847C216.274 208.099 215.92 208.465 215.662 208.945C215.41 209.425 215.283 210.007 215.283 210.69ZM233.828 219.249C232.713 219.249 231.716 218.963 230.836 218.391C229.956 217.818 229.26 216.987 228.749 215.898C228.239 214.808 227.983 213.485 227.983 211.928C227.983 210.352 228.242 209.022 228.759 207.939C229.282 206.849 229.987 206.028 230.873 205.474C231.759 204.914 232.747 204.634 233.837 204.634C234.668 204.634 235.351 204.775 235.886 205.058C236.422 205.335 236.847 205.671 237.161 206.065C237.475 206.452 237.718 206.819 237.89 207.163H238.029V200.091H241.38V219H238.093V216.766H237.89C237.718 217.11 237.468 217.477 237.142 217.864C236.816 218.246 236.385 218.572 235.85 218.843C235.314 219.114 234.64 219.249 233.828 219.249ZM234.76 216.507C235.468 216.507 236.071 216.316 236.57 215.935C237.068 215.547 237.447 215.008 237.705 214.319C237.964 213.629 238.093 212.826 238.093 211.909C238.093 210.992 237.964 210.195 237.705 209.518C237.453 208.841 237.078 208.314 236.579 207.939C236.087 207.563 235.48 207.376 234.76 207.376C234.015 207.376 233.394 207.57 232.895 207.957C232.396 208.345 232.021 208.881 231.769 209.564C231.516 210.247 231.39 211.029 231.39 211.909C231.39 212.795 231.516 213.586 231.769 214.282C232.027 214.971 232.406 215.516 232.904 215.916C233.409 216.31 234.028 216.507 234.76 216.507ZM245.722 219V204.818H249.064V219H245.722ZM247.402 202.805C246.873 202.805 246.417 202.63 246.036 202.279C245.654 201.922 245.463 201.494 245.463 200.996C245.463 200.491 245.654 200.063 246.036 199.712C246.417 199.355 246.873 199.177 247.402 199.177C247.938 199.177 248.393 199.355 248.769 199.712C249.15 200.063 249.341 200.491 249.341 200.996C249.341 201.494 249.15 201.922 248.769 202.279C248.393 202.63 247.938 202.805 247.402 202.805ZM256.623 210.69V219H253.281V204.818H256.476V207.228H256.642C256.968 206.434 257.488 205.803 258.202 205.335C258.922 204.867 259.812 204.634 260.87 204.634C261.849 204.634 262.702 204.843 263.428 205.261C264.161 205.68 264.727 206.286 265.127 207.08C265.533 207.874 265.733 208.838 265.727 209.97V219H262.385V210.487C262.385 209.539 262.138 208.798 261.646 208.262C261.16 207.727 260.486 207.459 259.624 207.459C259.039 207.459 258.519 207.588 258.064 207.847C257.614 208.099 257.26 208.465 257.002 208.945C256.75 209.425 256.623 210.007 256.623 210.69ZM276.072 224.614C274.872 224.614 273.841 224.451 272.979 224.124C272.118 223.804 271.425 223.373 270.902 222.832C270.379 222.29 270.016 221.69 269.812 221.031L272.822 220.302C272.958 220.579 273.155 220.853 273.413 221.124C273.672 221.401 274.02 221.628 274.457 221.807C274.9 221.991 275.457 222.084 276.128 222.084C277.076 222.084 277.86 221.853 278.482 221.391C279.104 220.936 279.415 220.185 279.415 219.138V216.452H279.249C279.076 216.796 278.824 217.15 278.491 217.513C278.165 217.877 277.731 218.181 277.19 218.428C276.654 218.674 275.98 218.797 275.168 218.797C274.078 218.797 273.09 218.541 272.204 218.031C271.324 217.513 270.622 216.744 270.099 215.722C269.582 214.694 269.323 213.408 269.323 211.863C269.323 210.306 269.582 208.991 270.099 207.92C270.622 206.843 271.327 206.028 272.213 205.474C273.099 204.914 274.087 204.634 275.177 204.634C276.008 204.634 276.691 204.775 277.226 205.058C277.768 205.335 278.199 205.671 278.519 206.065C278.839 206.452 279.082 206.819 279.249 207.163H279.433V204.818H282.729V219.231C282.729 220.443 282.44 221.447 281.861 222.241C281.283 223.035 280.492 223.629 279.489 224.023C278.485 224.417 277.347 224.614 276.072 224.614ZM276.1 216.175C276.808 216.175 277.411 216.002 277.91 215.658C278.408 215.313 278.787 214.817 279.045 214.171C279.304 213.525 279.433 212.749 279.433 211.844C279.433 210.952 279.304 210.17 279.045 209.499C278.793 208.828 278.418 208.308 277.919 207.939C277.427 207.563 276.82 207.376 276.1 207.376C275.355 207.376 274.734 207.57 274.235 207.957C273.736 208.345 273.361 208.878 273.109 209.555C272.856 210.226 272.73 210.989 272.73 211.844C272.73 212.712 272.856 213.473 273.109 214.125C273.367 214.771 273.746 215.276 274.244 215.639C274.749 215.996 275.368 216.175 276.1 216.175ZM309.851 200.091V219H306.804L297.894 206.12H297.737V219H294.312V200.091H297.377L306.278 212.98H306.444V200.091H309.851ZM320.494 219.277C319.072 219.277 317.844 218.982 316.81 218.391C315.782 217.794 314.991 216.95 314.437 215.861C313.883 214.765 313.606 213.476 313.606 211.992C313.606 210.533 313.883 209.253 314.437 208.151C314.997 207.043 315.779 206.182 316.782 205.566C317.786 204.944 318.964 204.634 320.318 204.634C321.192 204.634 322.017 204.775 322.793 205.058C323.575 205.335 324.264 205.766 324.861 206.351C325.464 206.936 325.938 207.68 326.283 208.585C326.628 209.484 326.8 210.555 326.8 211.798V212.823H315.176V210.57H323.596C323.59 209.93 323.451 209.361 323.181 208.862C322.91 208.357 322.531 207.96 322.045 207.671C321.565 207.382 321.005 207.237 320.365 207.237C319.681 207.237 319.081 207.403 318.564 207.736C318.047 208.062 317.644 208.493 317.355 209.028C317.072 209.558 316.927 210.139 316.921 210.773V212.74C316.921 213.565 317.072 214.273 317.373 214.864C317.675 215.448 318.096 215.898 318.638 216.212C319.18 216.519 319.814 216.673 320.54 216.673C321.026 216.673 321.466 216.606 321.86 216.47C322.254 216.329 322.596 216.122 322.885 215.852C323.174 215.581 323.393 215.245 323.541 214.845L326.661 215.196C326.465 216.021 326.089 216.741 325.535 217.357C324.987 217.966 324.286 218.44 323.43 218.778C322.574 219.111 321.596 219.277 320.494 219.277ZM337.489 204.818V207.403H329.337V204.818H337.489ZM331.349 201.42H334.692V214.734C334.692 215.184 334.759 215.528 334.895 215.768C335.036 216.002 335.221 216.162 335.449 216.249C335.677 216.335 335.929 216.378 336.206 216.378C336.415 216.378 336.606 216.362 336.778 216.332C336.957 216.301 337.092 216.273 337.185 216.249L337.748 218.862C337.569 218.923 337.314 218.991 336.981 219.065C336.655 219.138 336.255 219.182 335.781 219.194C334.944 219.219 334.19 219.092 333.519 218.815C332.848 218.532 332.316 218.095 331.922 217.504C331.534 216.913 331.343 216.175 331.349 215.288V201.42ZM343.991 219L339.984 204.818H343.391L345.884 214.79H346.013L348.562 204.818H351.932L354.48 214.734H354.618L357.074 204.818H360.491L356.474 219H352.993L350.334 209.416H350.141L347.481 219H343.991ZM369.384 219.277C367.999 219.277 366.799 218.972 365.783 218.363C364.768 217.754 363.98 216.901 363.42 215.805C362.866 214.71 362.589 213.429 362.589 211.964C362.589 210.5 362.866 209.216 363.42 208.114C363.98 207.013 364.768 206.157 365.783 205.548C366.799 204.938 367.999 204.634 369.384 204.634C370.769 204.634 371.969 204.938 372.985 205.548C374.001 206.157 374.785 207.013 375.339 208.114C375.899 209.216 376.18 210.5 376.18 211.964C376.18 213.429 375.899 214.71 375.339 215.805C374.785 216.901 374.001 217.754 372.985 218.363C371.969 218.972 370.769 219.277 369.384 219.277ZM369.403 216.599C370.154 216.599 370.781 216.393 371.286 215.981C371.791 215.562 372.166 215.002 372.413 214.3C372.665 213.599 372.791 212.817 372.791 211.955C372.791 211.087 372.665 210.303 372.413 209.601C372.166 208.893 371.791 208.33 371.286 207.911C370.781 207.493 370.154 207.283 369.403 207.283C368.633 207.283 367.993 207.493 367.482 207.911C366.977 208.33 366.599 208.893 366.346 209.601C366.1 210.303 365.977 211.087 365.977 211.955C365.977 212.817 366.1 213.599 366.346 214.3C366.599 215.002 366.977 215.562 367.482 215.981C367.993 216.393 368.633 216.599 369.403 216.599ZM379.796 219V204.818H383.037V207.182H383.185C383.443 206.363 383.887 205.732 384.514 205.289C385.148 204.84 385.872 204.615 386.684 204.615C386.869 204.615 387.075 204.624 387.303 204.643C387.537 204.655 387.731 204.677 387.884 204.707V207.782C387.743 207.733 387.518 207.69 387.21 207.653C386.909 207.61 386.616 207.588 386.333 207.588C385.724 207.588 385.176 207.72 384.69 207.985C384.21 208.244 383.831 208.604 383.554 209.065C383.277 209.527 383.139 210.059 383.139 210.663V219H379.796ZM393.932 214.55L393.923 210.515H394.458L399.555 204.818H403.46L397.191 211.798H396.499L393.932 214.55ZM390.885 219V200.091H394.227V219H390.885ZM399.786 219L395.169 212.546L397.422 210.192L403.783 219H399.786ZM417.778 219.286C416.879 219.286 416.07 219.126 415.35 218.806C414.636 218.48 414.069 218 413.651 217.366C413.238 216.732 413.032 215.95 413.032 215.021C413.032 214.22 413.18 213.559 413.475 213.036C413.771 212.512 414.174 212.094 414.685 211.78C415.196 211.466 415.771 211.229 416.411 211.069C417.058 210.903 417.726 210.783 418.415 210.709C419.246 210.623 419.92 210.546 420.437 210.478C420.954 210.404 421.33 210.293 421.563 210.146C421.803 209.992 421.924 209.755 421.924 209.435V209.379C421.924 208.684 421.717 208.145 421.305 207.763C420.892 207.382 420.299 207.191 419.523 207.191C418.704 207.191 418.055 207.37 417.575 207.727C417.101 208.084 416.781 208.505 416.615 208.991L413.494 208.548C413.74 207.687 414.146 206.966 414.713 206.388C415.279 205.803 415.971 205.366 416.79 205.077C417.609 204.781 418.513 204.634 419.504 204.634C420.188 204.634 420.868 204.714 421.545 204.874C422.222 205.034 422.841 205.298 423.401 205.668C423.961 206.031 424.41 206.526 424.749 207.154C425.093 207.782 425.266 208.567 425.266 209.509V219H422.053V217.052H421.942C421.739 217.446 421.453 217.815 421.083 218.16C420.72 218.498 420.262 218.772 419.708 218.982C419.16 219.185 418.517 219.286 417.778 219.286ZM418.646 216.83C419.317 216.83 419.898 216.698 420.391 216.433C420.883 216.162 421.262 215.805 421.526 215.362C421.797 214.919 421.933 214.436 421.933 213.913V212.241C421.828 212.328 421.65 212.408 421.397 212.482C421.151 212.555 420.874 212.62 420.566 212.675C420.258 212.731 419.954 212.78 419.652 212.823C419.351 212.866 419.089 212.903 418.867 212.934C418.369 213.002 417.923 213.112 417.529 213.266C417.135 213.42 416.824 213.636 416.596 213.913C416.368 214.183 416.254 214.534 416.254 214.965C416.254 215.581 416.479 216.045 416.928 216.359C417.378 216.673 417.95 216.83 418.646 216.83ZM436.488 204.818V207.403H428.336V204.818H436.488ZM430.348 201.42H433.691V214.734C433.691 215.184 433.758 215.528 433.894 215.768C434.035 216.002 434.22 216.162 434.448 216.249C434.676 216.335 434.928 216.378 435.205 216.378C435.414 216.378 435.605 216.362 435.777 216.332C435.956 216.301 436.091 216.273 436.184 216.249L436.747 218.862C436.568 218.923 436.313 218.991 435.98 219.065C435.654 219.138 435.254 219.182 434.78 219.194C433.943 219.219 433.189 219.092 432.518 218.815C431.847 218.532 431.315 218.095 430.921 217.504C430.533 216.913 430.342 216.175 430.348 215.288V201.42ZM451.374 219.286C450.475 219.286 449.666 219.126 448.945 218.806C448.231 218.48 447.665 218 447.247 217.366C446.834 216.732 446.628 215.95 446.628 215.021C446.628 214.22 446.776 213.559 447.071 213.036C447.367 212.512 447.77 212.094 448.281 211.78C448.792 211.466 449.367 211.229 450.007 211.069C450.654 210.903 451.321 210.783 452.011 210.709C452.842 210.623 453.516 210.546 454.033 210.478C454.55 210.404 454.925 210.293 455.159 210.146C455.399 209.992 455.519 209.755 455.519 209.435V209.379C455.519 208.684 455.313 208.145 454.901 207.763C454.488 207.382 453.894 207.191 453.119 207.191C452.3 207.191 451.651 207.37 451.171 207.727C450.697 208.084 450.377 208.505 450.21 208.991L447.09 208.548C447.336 207.687 447.742 206.966 448.308 206.388C448.875 205.803 449.567 205.366 450.386 205.077C451.204 204.781 452.109 204.634 453.1 204.634C453.784 204.634 454.464 204.714 455.141 204.874C455.818 205.034 456.437 205.298 456.997 205.668C457.557 206.031 458.006 206.526 458.345 207.154C458.689 207.782 458.862 208.567 458.862 209.509V219H455.649V217.052H455.538C455.335 217.446 455.048 217.815 454.679 218.16C454.316 218.498 453.857 218.772 453.303 218.982C452.756 219.185 452.112 219.286 451.374 219.286ZM452.242 216.83C452.913 216.83 453.494 216.698 453.987 216.433C454.479 216.162 454.858 215.805 455.122 215.362C455.393 214.919 455.529 214.436 455.529 213.913V212.241C455.424 212.328 455.245 212.408 454.993 212.482C454.747 212.555 454.47 212.62 454.162 212.675C453.854 212.731 453.55 212.78 453.248 212.823C452.946 212.866 452.685 212.903 452.463 212.934C451.965 213.002 451.518 213.112 451.124 213.266C450.731 213.42 450.42 213.636 450.192 213.913C449.964 214.183 449.85 214.534 449.85 214.965C449.85 215.581 450.075 216.045 450.524 216.359C450.974 216.673 451.546 216.83 452.242 216.83ZM483.047 206.129C482.893 205.631 482.681 205.184 482.41 204.79C482.145 204.39 481.825 204.049 481.45 203.766C481.08 203.482 480.656 203.27 480.176 203.129C479.695 202.981 479.172 202.907 478.606 202.907C477.59 202.907 476.686 203.162 475.892 203.673C475.097 204.184 474.473 204.935 474.017 205.926C473.568 206.911 473.343 208.111 473.343 209.527C473.343 210.955 473.568 212.165 474.017 213.156C474.467 214.147 475.091 214.901 475.892 215.418C476.692 215.929 477.621 216.184 478.68 216.184C479.64 216.184 480.471 215.999 481.173 215.63C481.881 215.261 482.425 214.737 482.807 214.06C483.189 213.377 483.379 212.577 483.379 211.66L484.155 211.78H479.021V209.102H486.694V211.374C486.694 212.992 486.349 214.393 485.66 215.575C484.971 216.756 484.023 217.667 482.816 218.308C481.61 218.942 480.225 219.259 478.661 219.259C476.919 219.259 475.39 218.868 474.073 218.086C472.762 217.298 471.737 216.181 470.998 214.734C470.266 213.282 469.899 211.558 469.899 209.564C469.899 208.037 470.115 206.674 470.546 205.474C470.983 204.273 471.592 203.255 472.374 202.418C473.155 201.574 474.073 200.934 475.125 200.497C476.178 200.054 477.323 199.832 478.56 199.832C479.606 199.832 480.582 199.986 481.487 200.294C482.392 200.596 483.195 201.027 483.896 201.587C484.604 202.147 485.186 202.812 485.642 203.581C486.097 204.35 486.396 205.2 486.537 206.129H483.047ZM493.981 200.091V219H490.639V200.091H493.981ZM502.279 219.286C501.38 219.286 500.571 219.126 499.851 218.806C499.137 218.48 498.57 218 498.152 217.366C497.739 216.732 497.533 215.95 497.533 215.021C497.533 214.22 497.681 213.559 497.976 213.036C498.272 212.512 498.675 212.094 499.186 211.78C499.697 211.466 500.272 211.229 500.912 211.069C501.559 210.903 502.227 210.783 502.916 210.709C503.747 210.623 504.421 210.546 504.938 210.478C505.455 210.404 505.831 210.293 506.064 210.146C506.304 209.992 506.425 209.755 506.425 209.435V209.379C506.425 208.684 506.218 208.145 505.806 207.763C505.394 207.382 504.8 207.191 504.024 207.191C503.205 207.191 502.556 207.37 502.076 207.727C501.602 208.084 501.282 208.505 501.116 208.991L497.995 208.548C498.241 207.687 498.647 206.966 499.214 206.388C499.78 205.803 500.472 205.366 501.291 205.077C502.11 204.781 503.014 204.634 504.005 204.634C504.689 204.634 505.369 204.714 506.046 204.874C506.723 205.034 507.342 205.298 507.902 205.668C508.462 206.031 508.911 206.526 509.25 207.154C509.594 207.782 509.767 208.567 509.767 209.509V219H506.554V217.052H506.443C506.24 217.446 505.954 217.815 505.584 218.16C505.221 218.498 504.763 218.772 504.209 218.982C503.661 219.185 503.018 219.286 502.279 219.286ZM503.147 216.83C503.818 216.83 504.399 216.698 504.892 216.433C505.384 216.162 505.763 215.805 506.027 215.362C506.298 214.919 506.434 214.436 506.434 213.913V212.241C506.329 212.328 506.151 212.408 505.898 212.482C505.652 212.555 505.375 212.62 505.067 212.675C504.76 212.731 504.455 212.78 504.153 212.823C503.852 212.866 503.59 212.903 503.368 212.934C502.87 213.002 502.424 213.112 502.03 213.266C501.636 213.42 501.325 213.636 501.097 213.913C500.869 214.183 500.755 214.534 500.755 214.965C500.755 215.581 500.98 216.045 501.429 216.359C501.879 216.673 502.451 216.83 503.147 216.83ZM517.25 210.69V219H513.908V204.818H517.102V207.228H517.268C517.595 206.434 518.115 205.803 518.829 205.335C519.549 204.867 520.438 204.634 521.497 204.634C522.476 204.634 523.328 204.843 524.055 205.261C524.787 205.68 525.353 206.286 525.754 207.08C526.16 207.874 526.36 208.838 526.354 209.97V219H523.011V210.487C523.011 209.539 522.765 208.798 522.273 208.262C521.786 207.727 521.112 207.459 520.251 207.459C519.666 207.459 519.146 207.588 518.69 207.847C518.241 208.099 517.887 208.465 517.629 208.945C517.376 209.425 517.25 210.007 517.25 210.69ZM536.717 219.277C535.302 219.277 534.086 218.966 533.07 218.344C532.061 217.723 531.282 216.864 530.735 215.768C530.193 214.667 529.922 213.399 529.922 211.964C529.922 210.524 530.199 209.253 530.753 208.151C531.307 207.043 532.089 206.182 533.098 205.566C534.114 204.944 535.314 204.634 536.699 204.634C537.85 204.634 538.869 204.846 539.755 205.271C540.648 205.689 541.359 206.283 541.888 207.053C542.417 207.816 542.719 208.708 542.793 209.73H539.598C539.469 209.047 539.161 208.478 538.675 208.022C538.195 207.56 537.552 207.33 536.745 207.33C536.062 207.33 535.462 207.514 534.945 207.884C534.428 208.247 534.025 208.77 533.735 209.453C533.452 210.136 533.311 210.955 533.311 211.909C533.311 212.875 533.452 213.706 533.735 214.402C534.018 215.091 534.415 215.624 534.926 215.999C535.443 216.369 536.05 216.553 536.745 216.553C537.238 216.553 537.678 216.461 538.065 216.276C538.459 216.085 538.789 215.812 539.053 215.455C539.318 215.098 539.5 214.664 539.598 214.153H542.793C542.713 215.156 542.417 216.045 541.906 216.821C541.395 217.59 540.7 218.194 539.82 218.631C538.94 219.062 537.905 219.277 536.717 219.277ZM552.596 219.277C551.174 219.277 549.946 218.982 548.912 218.391C547.884 217.794 547.093 216.95 546.539 215.861C545.985 214.765 545.708 213.476 545.708 211.992C545.708 210.533 545.985 209.253 546.539 208.151C547.099 207.043 547.881 206.182 548.884 205.566C549.887 204.944 551.066 204.634 552.42 204.634C553.294 204.634 554.119 204.775 554.895 205.058C555.676 205.335 556.366 205.766 556.963 206.351C557.566 206.936 558.04 207.68 558.385 208.585C558.729 209.484 558.902 210.555 558.902 211.798V212.823H547.277V210.57H555.698C555.692 209.93 555.553 209.361 555.282 208.862C555.012 208.357 554.633 207.96 554.147 207.671C553.667 207.382 553.107 207.237 552.466 207.237C551.783 207.237 551.183 207.403 550.666 207.736C550.149 208.062 549.746 208.493 549.456 209.028C549.173 209.558 549.029 210.139 549.022 210.773V212.74C549.022 213.565 549.173 214.273 549.475 214.864C549.777 215.448 550.198 215.898 550.74 216.212C551.281 216.519 551.915 216.673 552.642 216.673C553.128 216.673 553.568 216.606 553.962 216.47C554.356 216.329 554.698 216.122 554.987 215.852C555.276 215.581 555.495 215.245 555.643 214.845L558.763 215.196C558.566 216.021 558.191 216.741 557.637 217.357C557.089 217.966 556.387 218.44 555.532 218.778C554.676 219.111 553.697 219.277 552.596 219.277Z" fill="#343C6A"/>
<path d="M144.288 88.072V96.84H132.384V133H121.44V96.84H109.536V88.072H144.288ZM147.605 115.08C147.605 111.411 148.287 108.189 149.653 105.416C151.061 102.643 152.959 100.509 155.349 99.016C157.738 97.5227 160.405 96.776 163.349 96.776C165.866 96.776 168.063 97.288 169.941 98.312C171.861 99.336 173.333 100.68 174.357 102.344V97.288H185.301V133H174.357V127.944C173.29 129.608 171.797 130.952 169.877 131.976C167.999 133 165.802 133.512 163.285 133.512C160.383 133.512 157.738 132.765 155.349 131.272C152.959 129.736 151.061 127.581 149.653 124.808C148.287 121.992 147.605 118.749 147.605 115.08ZM174.357 115.144C174.357 112.413 173.589 110.259 172.053 108.68C170.559 107.101 168.725 106.312 166.549 106.312C164.373 106.312 162.517 107.101 160.981 108.68C159.487 110.216 158.741 112.349 158.741 115.08C158.741 117.811 159.487 119.987 160.981 121.608C162.517 123.187 164.373 123.976 166.549 123.976C168.725 123.976 170.559 123.187 172.053 121.608C173.589 120.029 174.357 117.875 174.357 115.144ZM204.162 102.344C205.229 100.68 206.701 99.336 208.578 98.312C210.455 97.288 212.653 96.776 215.17 96.776C218.114 96.776 220.781 97.5227 223.17 99.016C225.559 100.509 227.437 102.643 228.802 105.416C230.21 108.189 230.914 111.411 230.914 115.08C230.914 118.749 230.21 121.992 228.802 124.808C227.437 127.581 225.559 129.736 223.17 131.272C220.781 132.765 218.114 133.512 215.17 133.512C212.695 133.512 210.498 133 208.578 131.976C206.701 130.952 205.229 129.629 204.162 128.008V150.024H193.218V97.288H204.162V102.344ZM219.778 115.08C219.778 112.349 219.01 110.216 217.474 108.68C215.981 107.101 214.125 106.312 211.906 106.312C209.73 106.312 207.874 107.101 206.338 108.68C204.845 110.259 204.098 112.413 204.098 115.144C204.098 117.875 204.845 120.029 206.338 121.608C207.874 123.187 209.73 123.976 211.906 123.976C214.082 123.976 215.938 123.187 217.474 121.608C219.01 119.987 219.778 117.811 219.778 115.08ZM253.488 88.072C258.224 88.072 262.362 89.0107 265.904 90.888C269.445 92.7653 272.176 95.4107 274.096 98.824C276.058 102.195 277.04 106.099 277.04 110.536C277.04 114.931 276.058 118.835 274.096 122.248C272.176 125.661 269.424 128.307 265.84 130.184C262.298 132.061 258.181 133 253.488 133H236.656V88.072H253.488ZM252.784 123.528C256.922 123.528 260.144 122.397 262.448 120.136C264.752 117.875 265.904 114.675 265.904 110.536C265.904 106.397 264.752 103.176 262.448 100.872C260.144 98.568 256.922 97.416 252.784 97.416H247.6V123.528H252.784ZM294.1 103.24C295.38 101.277 296.98 99.7413 298.9 98.632C300.82 97.48 302.953 96.904 305.3 96.904V108.488H302.292C299.561 108.488 297.513 109.085 296.148 110.28C294.782 111.432 294.1 113.48 294.1 116.424V133H283.156V97.288H294.1V103.24ZM362.225 102.344C363.291 100.68 364.763 99.336 366.641 98.312C368.518 97.288 370.715 96.776 373.233 96.776C376.177 96.776 378.843 97.5227 381.233 99.016C383.622 100.509 385.499 102.643 386.865 105.416C388.273 108.189 388.977 111.411 388.977 115.08C388.977 118.749 388.273 121.992 386.865 124.808C385.499 127.581 383.622 129.736 381.233 131.272C378.843 132.765 376.177 133.512 373.233 133.512C370.758 133.512 368.561 133 366.641 131.976C364.763 130.952 363.291 129.629 362.225 128.008V150.024H351.281V97.288H362.225V102.344ZM377.841 115.08C377.841 112.349 377.073 110.216 375.537 108.68C374.043 107.101 372.187 106.312 369.969 106.312C367.793 106.312 365.937 107.101 364.401 108.68C362.907 110.259 362.161 112.413 362.161 115.144C362.161 117.875 362.907 120.029 364.401 121.608C365.937 123.187 367.793 123.976 369.969 123.976C372.145 123.976 374.001 123.187 375.537 121.608C377.073 119.987 377.841 117.811 377.841 115.08Z" fill="#0023C4"/>
<path d="M326.787 133.512C323.288 133.512 320.131 132.765 317.315 131.272C314.541 129.779 312.344 127.645 310.723 124.872C309.144 122.099 308.355 118.856 308.355 115.144C308.355 111.475 309.165 108.253 310.786 105.48C312.408 102.664 314.627 100.509 317.443 99.016C320.259 97.5227 323.416 96.776 326.915 96.776C330.413 96.776 333.571 97.5227 336.387 99.016C339.203 100.509 341.421 102.664 343.043 105.48C344.664 108.253 345.475 111.475 345.475 115.144C345.475 118.813 344.643 122.056 342.979 124.872C341.357 127.645 339.117 129.779 336.259 131.272C333.443 132.765 330.285 133.512 326.787 133.512ZM326.787 124.04C328.877 124.04 330.648 123.272 332.099 121.736C333.592 120.2 334.339 118.003 334.339 115.144C334.339 112.285 333.613 110.088 332.163 108.552C330.755 107.016 329.005 106.248 326.915 106.248C324.781 106.248 323.011 107.016 321.603 108.552C320.195 110.045 319.491 112.243 319.491 115.144C319.491 118.003 320.173 120.2 321.539 121.736C322.947 123.272 324.696 124.04 326.787 124.04Z" fill="white"/>
<path d="M327.738 81.5408C327.593 81.3712 327.413 81.235 327.21 81.1417C327.007 81.0483 326.786 81 326.563 81C326.34 81 326.119 81.0483 325.916 81.1417C325.714 81.235 325.533 81.3712 325.388 81.5408C321.307 86.3142 308 102.817 308 115.041C308 126.432 315.172 133.603 326.562 133.603C337.953 133.603 345.125 126.432 345.125 115.041C345.125 102.817 331.818 86.3142 327.738 81.5408ZM328.625 126.9C328.377 126.901 328.133 126.842 327.913 126.728C327.693 126.615 327.503 126.45 327.36 126.248C327.216 126.046 327.124 125.812 327.09 125.567C327.055 125.321 327.081 125.071 327.163 124.838C327.269 124.533 327.468 124.269 327.732 124.084C327.996 123.899 328.312 123.802 328.634 123.807C330.682 123.802 332.644 122.987 334.092 121.539C335.54 120.091 336.355 118.129 336.359 116.081C336.355 115.759 336.452 115.443 336.637 115.179C336.822 114.915 337.086 114.716 337.391 114.61C337.624 114.528 337.874 114.503 338.12 114.537C338.365 114.571 338.599 114.663 338.801 114.807C339.003 114.95 339.168 115.14 339.281 115.36C339.395 115.58 339.454 115.824 339.453 116.072C339.45 118.943 338.308 121.695 336.278 123.725C334.248 125.755 331.496 126.897 328.625 126.9Z" fill="#0023C4"/>
</g>
</g>
<defs>
<filter id="filter0_d_417_54" x="0" y="0" width="820" height="329" filterUnits="userSpaceOnUse" color-interpolation-filters="sRGB">
<feFlood flood-opacity="0" result="BackgroundImageFix"/>
<feColorMatrix in="SourceAlpha" type="matrix" values="0 0 0 0 0 0 0 0 0 0 0 0 0 0 0 0 0 0 127 0" result="hardAlpha"/>
<feOffset dy="4"/>
<feGaussianBlur stdDeviation="22.5"/>
<feComposite in2="hardAlpha" operator="out"/>
<feColorMatrix type="matrix" values="0 0 0 0 0.106736 0 0 0 0 0.664574 0 0 0 0 0.883333 0 0 0 0.08 0"/>
<feBlend mode="normal" in2="BackgroundImageFix" result="effect1_dropShadow_417_54"/>
<feBlend mode="normal" in="SourceGraphic" in2="effect1_dropShadow_417_54" result="shape"/>
</filter>
<filter id="filter1_f_417_54" x="595.45" y="-17.9326" width="241.557" height="250.048" filterUnits="userSpaceOnUse" color-interpolation-filters="sRGB">
<feFlood flood-opacity="0" result="BackgroundImageFix"/>
<feBlend mode="normal" in="SourceGraphic" in2="BackgroundImageFix" result="shape"/>
<feGaussianBlur stdDeviation="50" result="effect1_foregroundBlur_417_54"/>
</filter>
<filter id="filter2_f_417_54" x="682.6" y="78.1887" width="66.2031" height="58.8486" filterUnits="userSpaceOnUse" color-interpolation-filters="sRGB">
<feFlood flood-opacity="0" result="BackgroundImageFix"/>
<feBlend mode="normal" in="SourceGraphic" in2="BackgroundImageFix" result="shape"/>
<feGaussianBlur stdDeviation="5" result="effect1_foregroundBlur_417_54"/>
</filter>
<filter id="filter3_f_417_54" x="633.813" y="40.5592" width="145.119" height="145.119" filterUnits="userSpaceOnUse" color-interpolation-filters="sRGB">
<feFlood flood-opacity="0" result="BackgroundImageFix"/>
<feBlend mode="normal" in="SourceGraphic" in2="BackgroundImageFix" result="shape"/>
<feGaussianBlur stdDeviation="25" result="effect1_foregroundBlur_417_54"/>
</filter>
<filter id="filter4_f_417_54" x="499.33" y="37.6061" width="304.75" height="328.769" filterUnits="userSpaceOnUse" color-interpolation-filters="sRGB">
<feFlood flood-opacity="0" result="BackgroundImageFix"/>
<feBlend mode="normal" in="SourceGraphic" in2="BackgroundImageFix" result="shape"/>
<feGaussianBlur stdDeviation="50" result="effect1_foregroundBlur_417_54"/>
</filter>
<filter id="filter5_f_417_54" x="582.146" y="145.646" width="136.465" height="117.926" filterUnits="userSpaceOnUse" color-interpolation-filters="sRGB">
<feFlood flood-opacity="0" result="BackgroundImageFix"/>
<feBlend mode="normal" in="SourceGraphic" in2="BackgroundImageFix" result="shape"/>
<feGaussianBlur stdDeviation="5" result="effect1_foregroundBlur_417_54"/>
</filter>
<filter id="filter6_f_417_54" x="520" y="111.625" width="213.728" height="213.728" filterUnits="userSpaceOnUse" color-interpolation-filters="sRGB">
<feFlood flood-opacity="0" result="BackgroundImageFix"/>
<feBlend mode="normal" in="SourceGraphic" in2="BackgroundImageFix" result="shape"/>
<feGaussianBlur stdDeviation="25" result="effect1_foregroundBlur_417_54"/>
</filter>
<radialGradient id="paint0_radial_417_54" cx="0" cy="0" r="1" gradientUnits="userSpaceOnUse" gradientTransform="translate(716.346 111.456) rotate(-46.0086) scale(47.6949 38.3091)">
<stop offset="0.109324" stop-color="#3CC7F5"/>
<stop offset="1" stop-color="#0023C4"/>
</radialGradient>
<radialGradient id="paint1_radial_417_54" cx="0" cy="0" r="1" gradientUnits="userSpaceOnUse" gradientTransform="translate(716.228 118.394) rotate(-46.025) scale(41.7454 33.5298)">
<stop offset="0.109324" stop-color="#3CC7F5"/>
<stop offset="1" stop-color="#0023C4"/>
</radialGradient>
<radialGradient id="paint2_radial_417_54" cx="0" cy="0" r="1" gradientUnits="userSpaceOnUse" gradientTransform="translate(716.345 111.366) rotate(-46.0073) scale(47.6916 38.3066)">
<stop offset="0.109324" stop-color="#3CC7F5"/>
<stop offset="1" stop-color="#0023C4"/>
</radialGradient>
<radialGradient id="paint3_radial_417_54" cx="0" cy="0" r="1" gradientUnits="userSpaceOnUse" gradientTransform="translate(724.181 90.5593) rotate(51.5592) scale(24.2544 5.49049)">
<stop stop-color="white"/>
<stop offset="0.601048" stop-color="#BDDBF1" stop-opacity="0.28"/>
<stop offset="1" stop-color="#5686F5" stop-opacity="0"/>
</radialGradient>
<radialGradient id="paint4_radial_417_54" cx="0" cy="0" r="1" gradientUnits="userSpaceOnUse" gradientTransform="translate(706.372 113.118) rotate(50.1428) scale(16.8592 16.7582)">
<stop stop-color="white"/>
<stop offset="0.601048" stop-color="#BDDBF1" stop-opacity="0.28"/>
<stop offset="1" stop-color="#5686F5" stop-opacity="0"/>
</radialGradient>
<radialGradient id="paint5_radial_417_54" cx="0" cy="0" r="1" gradientUnits="userSpaceOnUse" gradientTransform="translate(652.002 214.299) rotate(-46.0086) scale(120.222 96.5641)">
<stop offset="0.109324" stop-color="#3CC7F5"/>
<stop offset="1" stop-color="#0023C4"/>
</radialGradient>
<radialGradient id="paint6_radial_417_54" cx="0" cy="0" r="1" gradientUnits="userSpaceOnUse" gradientTransform="translate(651.705 231.788) rotate(-46.025) scale(105.226 84.5169)">
<stop offset="0.109324" stop-color="#3CC7F5"/>
<stop offset="1" stop-color="#0023C4"/>
</radialGradient>
<radialGradient id="paint7_radial_417_54" cx="0" cy="0" r="1" gradientUnits="userSpaceOnUse" gradientTransform="translate(652.002 214.069) rotate(-46.0071) scale(120.217 96.5596)">
<stop offset="0.109324" stop-color="#3CC7F5"/>
<stop offset="1" stop-color="#0023C4"/>
</radialGradient>
<radialGradient id="paint8_radial_417_54" cx="0" cy="0" r="1" gradientUnits="userSpaceOnUse" gradientTransform="translate(671.757 161.625) rotate(51.5592) scale(61.1369 13.8396)">
<stop stop-color="white"/>
<stop offset="0.601048" stop-color="#BDDBF1" stop-opacity="0.28"/>
<stop offset="1" stop-color="#5686F5" stop-opacity="0"/>
</radialGradient>
<radialGradient id="paint9_radial_417_54" cx="0" cy="0" r="1" gradientUnits="userSpaceOnUse" gradientTransform="translate(626.864 218.489) rotate(50.1428) scale(42.4963 42.2415)">
<stop stop-color="white"/>
<stop offset="0.601048" stop-color="#BDDBF1" stop-opacity="0.28"/>
<stop offset="1" stop-color="#5686F5" stop-opacity="0"/>
</radialGradient>
<clipPath id="clip0_417_54">
<rect x="45" y="41" width="730" height="239" rx="16" fill="white"/>
</clipPath>
</defs>
</svg>
