<svg width="204" height="204" viewBox="0 0 204 204" fill="none" xmlns="http://www.w3.org/2000/svg">
  <g clip-path="url(#clip0_494_162)">
    <rect x="8" y="8" width="188" height="188" rx="94" fill="white"/>
    <path d="M79.7733 107.89C6.34604 134.876 -57.7922 49.0533 -119.276 76.4811C-155.99 85.3287 -230.125 103.997 -232.956 107.89C-235.787 111.783 -238.559 197.989 -239.591 240.605L305.805 330.409C342.961 284.549 406.746 179.733 364.635 127.355C311.998 61.8824 153.2 80.9049 79.7733 107.89Z" fill="#50BEFC" fill-opacity="0.72"/>
    <path d="M160.558 110.508C98.8535 133.19 44.9553 61.0528 -6.71261 84.1071C-37.5647 91.544 -99.8635 107.236 -102.243 110.508C-104.621 113.78 -106.951 186.24 -107.818 222.061L350.502 297.545C381.726 258.998 435.327 170.895 399.94 126.869C355.706 71.8362 222.262 87.8255 160.558 110.508Z" fill="#3BB8ED" fill-opacity="0.69"/>
  </g>
  <rect x="4" y="4" width="196" height="196" rx="98" stroke="#ADE5FC" stroke-width="8"/>
  <defs>
    <clipPath id="clip0_494_162">
      <rect x="8" y="8" width="188" height="188" rx="94" fill="white"/>
    </clipPath>
  </defs>
</svg>
